<?xml version="1.0" encoding="UTF-8"?>
<svg xmlns="http://www.w3.org/2000/svg" width="909" height="204" viewBox="0 0 909 204">
  <g fill="#bea1ff">
    <circle cx="63.4983" cy="166" r="26" />
    <circle cx="138.498" cy="166" r="26" opacity="0.5" />
    <circle cx="175.498" cy="101" r="26" opacity="0.5" />
    <path d="m313.65,92.55h-18.6v63.45h-25.2v-63.45h-11.7v-12.3l12-6.45v-3.9c0-10.6,2.4-18,7.2-22.2,4.8-4.3,11.9-6.45,21.3-6.45,4.3,0,8.2.35,11.7,1.05,3.6.7,6.9,1.55,9.9,2.55l-6,17.4c-1.5-.4-3.2-.8-5.1-1.2-1.9-.4-4-.6-6.3-.6-2.7,0-4.7.85-6,2.55-1.2,1.6-1.8,3.9-1.8,6.9v3.75h18.6v18.9Zm88.712,22.05c0,13.8-3.65,24.4-10.95,31.8-7.2,7.4-17.1,11.1-29.7,11.1-7.8,0-14.75-1.65-20.85-4.95-6-3.4-10.75-8.25-14.25-14.55-3.4-6.4-5.1-14.2-5.1-23.4,0-13.6,3.6-24.05,10.8-31.35,7.3-7.4,17.25-11.1,29.85-11.1,7.8,0,14.7,1.65,20.7,4.95,6.1,3.3,10.85,8.1,14.25,14.4,3.5,6.3,5.25,14,5.25,23.1Zm-55.2,0c0,7.7,1.15,13.55,3.45,17.55,2.3,3.9,6.1,5.85,11.4,5.85,5.2,0,8.95-1.95,11.25-5.85,2.3-4,3.45-9.85,3.45-17.55,0-7.6-1.15-13.3-3.45-17.1-2.3-3.9-6.1-5.85-11.4-5.85-5.2,0-8.95,1.95-11.25,5.85-2.3,3.8-3.45,9.5-3.45,17.1Zm86.913-.6l-25.95-40.35h28.65l14.4,24.75,14.55-24.75h28.65l-26.25,40.35,27.45,42h-28.65l-15.75-26.7-15.75,26.7h-28.65l27.3-42Zm99.535-41.85c5.4,0,10,1.05,13.8,3.15,3.8,2.1,6.95,5,9.45,8.7h.6l1.95-10.35h21.6v82.5c0,11.7-3.55,20.6-10.65,26.7-7,6.1-17.6,9.15-31.8,9.15-6.2,0-11.8-.35-16.8-1.05s-9.9-1.95-14.7-3.75v-20.55c5.1,2.1,10.1,3.65,15,4.65,4.9,1.1,10.4,1.65,16.5,1.65,11.5,0,17.25-5.25,17.25-15.75v-1.65c0-1.4.05-3,.15-4.8.2-1.9.4-3.7.6-5.4h-.75c-2.4,3.9-5.5,6.9-9.3,9-3.7,2.1-8.15,3.15-13.35,3.15-9.3,0-16.7-3.7-22.2-11.1-5.4-7.4-8.1-17.9-8.1-31.5,0-13.7,2.75-24.25,8.25-31.65,5.6-7.4,13.1-11.1,22.5-11.1Zm8.85,19.95c-9.3,0-13.95,7.75-13.95,23.25,0,7.7,1.15,13.4,3.45,17.1,2.4,3.6,6,5.4,10.8,5.4,5.3,0,9.1-1.55,11.4-4.65,2.3-3.1,3.45-8.2,3.45-15.3v-3.15c0-7.7-1.15-13.4-3.45-17.1-2.2-3.7-6.1-5.55-11.7-5.55Zm85.604,63.9h-25.35V42h25.35v114Zm98.322-41.4c0,13.8-3.65,24.4-10.95,31.8-7.2,7.4-17.1,11.1-29.7,11.1-7.8,0-14.75-1.65-20.85-4.95-6-3.4-10.75-8.25-14.25-14.55-3.4-6.4-5.1-14.2-5.1-23.4,0-13.6,3.6-24.05,10.8-31.35,7.3-7.4,17.25-11.1,29.85-11.1,7.8,0,14.7,1.65,20.7,4.95,6.1,3.3,10.85,8.1,14.25,14.4,3.5,6.3,5.25,14,5.25,23.1Zm-55.2,0c0,7.7,1.15,13.55,3.45,17.55,2.3,3.9,6.1,5.85,11.4,5.85,5.2,0,8.95-1.95,11.25-5.85,2.3-4,3.45-9.85,3.45-17.55,0-7.6-1.15-13.3-3.45-17.1-2.3-3.9-6.1-5.85-11.4-5.85-5.2,0-8.95,1.95-11.25,5.85-2.3,3.8-3.45,9.5-3.45,17.1Zm90.213,41.4l-31.35-82.35h26.4l15,47.7c.5,1.7.95,3.8,1.35,6.3.5,2.4.8,4.6.9,6.6h.6c.1-2.1.35-4.3.75-6.6.5-2.3,1.05-4.35,1.65-6.15l15.3-47.85h26.25l-31.35,82.35h-25.5Zm103.183-83.85c11.6,0,20.8,3.2,27.6,9.6,6.8,6.3,10.2,15.6,10.2,27.9v11.7h-52.05c.2,5.4,1.95,9.7,5.25,12.9,3.3,3.2,8,4.8,14.1,4.8,5.2,0,9.95-.5,14.25-1.5,4.4-1,8.9-2.6,13.5-4.8v18.75c-4.1,2.1-8.45,3.6-13.05,4.5-4.5,1-10.1,1.5-16.8,1.5-8.3,0-15.7-1.5-22.2-4.5-6.4-3-11.45-7.6-15.15-13.8-3.6-6.3-5.4-14.25-5.4-23.85,0-9.7,1.65-17.75,4.95-24.15,3.3-6.4,7.9-11.15,13.8-14.25,6-3.2,13-4.8,21-4.8Zm.45,17.55c-3.9,0-7.15,1.25-9.75,3.75-2.5,2.4-4,6.25-4.5,11.55h28.35c-.1-4.3-1.3-7.9-3.6-10.8-2.3-3-5.8-4.5-10.5-4.5Z" fill="#fff" />
    <path d="m63.5281,10c6.0961,0,11.7051,2.0853,16.1527,5.5814,5.7877,4.711,13.1724,7.5353,21.2172,7.5353s15.429-2.8243,21.216-7.5353c4.448-3.4961,10.057-5.5814,16.153-5.5814,14.447,0,26.159,11.7116,26.159,26.1587s-11.712,26.1587-26.159,26.1587c-6.096,0-11.705-2.0853-16.153-5.5814-5.787-4.7111-13.172-7.5353-21.216-7.5353s-15.4295,2.8242-21.2172,7.5353c-4.4476,3.4961-10.0566,5.5814-16.1527,5.5814-14.4471,0-26.1587-11.7117-26.1587-26.1587s11.7116-26.1587,26.1587-26.1587Z" fill-rule="evenodd" />
    <path d="m26.1587,75.023c6.0961,0,11.7051,2.0853,16.1527,5.5814,5.7877,4.7111,13.1724,7.5353,21.2168,7.5353s15.4292-2.8242,21.2168-7.5353c4.4477-3.4961,10.0567-5.5814,16.153-5.5814,14.447,0,26.158,11.7117,26.158,26.159s-11.711,26.158-26.158,26.158c-6.0963,0-11.7053-2.085-16.153-5.581-5.7876-4.711-13.1724-7.535-21.2168-7.535s-15.4291,2.824-21.2168,7.535c-4.4476,3.496-10.0566,5.581-16.1527,5.581-14.4471,0-26.1587-11.711-26.1587-26.158s11.7116-26.159,26.1587-26.159Z" fill-rule="evenodd" />
  </g>
</svg>
